Coordinates
version=1
nRows=38
nColumns=12
inDegrees=yes

Units are S.I. units (second, meters, Newtons, ...)
Angles are in degrees

endheader
time	SC_y	SC_z	SC_x	AC_y	AC_z	AC_x	GH_y	GH_z	GH_yy	EL_x	PS_y
       0.0              -23.36          22.95          15.24          32.13         -19.98          16.19         -38.35          68.01         -122.1          115.2          86.37
    0.0483              -23.36          22.95          15.25          32.13         -19.98          16.19         -38.35          68.01         -122.0          115.2          86.36
    0.0966              -23.37          22.95          15.26          32.14         -19.98          16.18         -38.35          68.01         -122.0          115.1          86.36
    0.1449              -23.37          22.95          15.27          32.14         -19.97          16.18         -38.35          68.01         -122.0          115.1          86.35
    0.1932              -23.37          22.95          15.28          32.14         -19.97          16.18         -38.35          68.01         -122.0          115.1          86.34
    0.2415              -23.37          22.95          15.29          32.15         -19.97          16.18         -38.35          68.01         -122.0          115.1          86.33
    0.2898              -23.38          22.96           15.3          32.15         -19.97          16.17         -38.35          68.01         -122.0          115.1          86.32
    0.3381              -23.38          22.96          15.31          32.16         -19.97          16.17         -38.35          68.01         -122.0          115.1          86.31
    0.3864              -23.38          22.96          15.32          32.16         -19.97          16.16         -38.35          68.01         -122.0          115.0           86.3
    0.4347              -23.39          22.96          15.33          32.17         -19.97          16.16         -38.35          68.02         -122.0          115.0          86.29
     0.483              -23.39          22.96          15.35          32.17         -19.97          16.16         -38.35          68.02         -122.0          115.0          86.28
    0.5313              -23.39          22.96          15.36          32.18         -19.97          16.15         -38.35          68.02         -122.0          115.0          86.26
    0.5796               -23.4          22.96          15.38          32.18         -19.97          16.15         -38.35          68.02         -122.0          114.9          86.25
    0.6279               -23.4          22.96           15.4          32.19         -19.96          16.14         -38.35          68.02         -122.0          114.9          86.23
    0.6762              -23.41          22.97          15.42           32.2         -19.96          16.13         -38.35          68.02         -122.0          114.9          86.21
    0.7245              -23.41          22.97          15.44          32.21         -19.96          16.13         -38.34          68.02         -122.0          114.8          86.19
    0.7728              -23.42          22.97          15.46          32.22         -19.96          16.12         -38.34          68.03         -121.9          114.8          86.17
    0.8211              -23.42          22.97          15.49          32.23         -19.96          16.11         -38.34          68.03         -121.9          114.7          86.15
    0.8694              -23.43          22.97          15.52          32.24         -19.95          16.11         -38.34          68.03         -121.9          114.7          86.13
    0.9177              -23.44          22.98          15.55          32.25         -19.95           16.1         -38.34          68.03         -121.9          114.6           86.1
     0.966              -23.44          22.98          15.58          32.26         -19.95          16.09         -38.34          68.03         -121.9          114.6          86.07
     1.014              -23.45          22.98          15.62          32.27         -19.95          16.08         -38.34          68.04         -121.9          114.5          86.04
     1.063              -23.46          22.99          15.66          32.29         -19.94          16.06         -38.34          68.04         -121.9          114.5           86.0
     1.111              -23.47          22.99           15.7          32.31         -19.94          16.05         -38.33          68.04         -121.8          114.4          85.96
     1.159              -23.49          22.99          15.75          32.32         -19.94          16.03         -38.33          68.05         -121.8          114.3          85.92
     1.208               -23.5           23.0          15.81          32.35         -19.93          16.02         -38.33          68.05         -121.8          114.2          85.87
     1.256              -23.51           23.0          15.87          32.37         -19.93           16.0         -38.33          68.06         -121.8          114.1          85.81
     1.304              -23.53          23.01          15.94           32.4         -19.92          15.98         -38.32          68.06         -121.7          114.0          85.75
     1.352              -23.55          23.02          16.02          32.43         -19.91          15.95         -38.32          68.07         -121.7          113.8          85.68
     1.401              -23.57          23.03          16.11          32.46         -19.91          15.93         -38.32          68.08         -121.6          113.7           85.6
     1.449               -23.6          23.03          16.21           32.5          -19.9           15.9         -38.31          68.08         -121.6          113.5          85.51
     1.497              -23.62          23.04          16.33          32.54         -19.89          15.86         -38.31          68.09         -121.5          113.3          85.41
     1.546              -23.66          23.06          16.46           32.6         -19.88          15.82          -38.3           68.1         -121.5          113.1          85.29
     1.594               -23.7          23.07          16.62          32.66         -19.86          15.77          -38.3          68.11         -121.4          112.8          85.15
     1.642              -23.74          23.09           16.8          32.73         -19.85          15.72         -38.29          68.13         -121.3          112.5          84.98
     1.691              -23.79           23.1          17.02          32.81         -19.83          15.65         -38.28          68.15         -121.2          112.1          84.79
     1.739              -23.85          23.13          17.28          32.91         -19.81          15.57         -38.27          68.17         -121.1          111.7          84.56
     1.787              -23.93          23.15          17.59          33.03         -19.79          15.48         -38.26          68.19         -120.9          111.1          84.29
